<?xml version="1.0" encoding="UTF-8" standalone="no"?>
<svg width="600" height="400" viewBox="0 0 600 400" fill="none" xmlns="http://www.w3.org/2000/svg">
  <!-- IDO Illustration -->
  <rect width="600" height="400" rx="20" fill="#000000"/>
  
  <!-- Grid Background -->
  <path d="M0 50H600" stroke="#F0B90B" stroke-opacity="0.1" stroke-width="1"/>
  <path d="M0 100H600" stroke="#F0B90B" stroke-opacity="0.1" stroke-width="1"/>
  <path d="M0 150H600" stroke="#F0B90B" stroke-opacity="0.1" stroke-width="1"/>
  <path d="M0 200H600" stroke="#F0B90B" stroke-opacity="0.1" stroke-width="1"/>
  <path d="M0 250H600" stroke="#F0B90B" stroke-opacity="0.1" stroke-width="1"/>
  <path d="M0 300H600" stroke="#F0B90B" stroke-opacity="0.1" stroke-width="1"/>
  <path d="M0 350H600" stroke="#F0B90B" stroke-opacity="0.1" stroke-width="1"/>
  
  <path d="M50 0V400" stroke="#F0B90B" stroke-opacity="0.1" stroke-width="1"/>
  <path d="M100 0V400" stroke="#F0B90B" stroke-opacity="0.1" stroke-width="1"/>
  <path d="M150 0V400" stroke="#F0B90B" stroke-opacity="0.1" stroke-width="1"/>
  <path d="M200 0V400" stroke="#F0B90B" stroke-opacity="0.1" stroke-width="1"/>
  <path d="M250 0V400" stroke="#F0B90B" stroke-opacity="0.1" stroke-width="1"/>
  <path d="M300 0V400" stroke="#F0B90B" stroke-opacity="0.1" stroke-width="1"/>
  <path d="M350 0V400" stroke="#F0B90B" stroke-opacity="0.1" stroke-width="1"/>
  <path d="M400 0V400" stroke="#F0B90B" stroke-opacity="0.1" stroke-width="1"/>
  <path d="M450 0V400" stroke="#F0B90B" stroke-opacity="0.1" stroke-width="1"/>
  <path d="M500 0V400" stroke="#F0B90B" stroke-opacity="0.1" stroke-width="1"/>
  <path d="M550 0V400" stroke="#F0B90B" stroke-opacity="0.1" stroke-width="1"/>
  
  <!-- Wallet Illustration -->
  <rect x="100" y="100" width="150" height="200" rx="10" fill="#F0B90B" fill-opacity="0.2" stroke="#F0B90B" stroke-width="3"/>
  <rect x="120" y="130" width="110" height="40" rx="5" fill="#000000" stroke="#F0B90B" stroke-width="2"/>
  <circle cx="175" cy="230" r="30" fill="#000000" stroke="#F0B90B" stroke-width="2"/>
  <path d="M165 230H185" stroke="#F0B90B" stroke-width="2"/>
  <path d="M175 220V240" stroke="#F0B90B" stroke-width="2"/>
  
  <!-- Token Illustration -->
  <circle cx="400" cy="200" r="80" fill="#F0B90B" fill-opacity="0.2" stroke="#F0B90B" stroke-width="3"/>
  <circle cx="400" cy="200" r="60" fill="#000000" stroke="#F0B90B" stroke-width="2"/>
  <text x="400" y="220" font-family="Arial" font-size="40" fill="#F0B90B" text-anchor="middle">MEMEFI</text>
  
  <!-- Connection Line -->
  <path d="M250 200H320" stroke="#F0B90B" stroke-width="3" stroke-dasharray="10 5"/>
  <circle cx="250" cy="200" r="5" fill="#F0B90B"/>
  <circle cx="320" cy="200" r="5" fill="#F0B90B"/>
  
  <!-- Arrow Indicators -->
  <path d="M285 180L305 200L285 220" stroke="#F0B90B" stroke-width="2"/>
  
  <!-- Glow Effects -->
  <circle cx="400" cy="200" r="90" fill="url(#glow1)"/>
  <circle cx="175" cy="200" r="90" fill="url(#glow2)"/>
  
  <defs>
    <radialGradient id="glow1" cx="0" cy="0" r="1" gradientUnits="userSpaceOnUse" gradientTransform="translate(400 200) rotate(90) scale(90)">
      <stop stop-color="#F0B90B" stop-opacity="0.3"/>
      <stop offset="1" stop-color="#F0B90B" stop-opacity="0"/>
    </radialGradient>
    <radialGradient id="glow2" cx="0" cy="0" r="1" gradientUnits="userSpaceOnUse" gradientTransform="translate(175 200) rotate(90) scale(90)">
      <stop stop-color="#F0B90B" stop-opacity="0.2"/>
      <stop offset="1" stop-color="#F0B90B" stop-opacity="0"/>
    </radialGradient>
  </defs>
</svg> 