<?xml version="1.0" encoding="UTF-8" standalone="no"?>
<svg width="600" height="600" viewBox="0 0 600 600" fill="none" xmlns="http://www.w3.org/2000/svg">
  <!-- Tokenomics Illustration -->
  <rect width="600" height="600" rx="20" fill="#000000"/>
  
  <!-- Grid Background -->
  <path d="M0 50H600" stroke="#F0B90B" stroke-opacity="0.1" stroke-width="1"/>
  <path d="M0 100H600" stroke="#F0B90B" stroke-opacity="0.1" stroke-width="1"/>
  <path d="M0 150H600" stroke="#F0B90B" stroke-opacity="0.1" stroke-width="1"/>
  <path d="M0 200H600" stroke="#F0B90B" stroke-opacity="0.1" stroke-width="1"/>
  <path d="M0 250H600" stroke="#F0B90B" stroke-opacity="0.1" stroke-width="1"/>
  <path d="M0 300H600" stroke="#F0B90B" stroke-opacity="0.1" stroke-width="1"/>
  <path d="M0 350H600" stroke="#F0B90B" stroke-opacity="0.1" stroke-width="1"/>
  <path d="M0 400H600" stroke="#F0B90B" stroke-opacity="0.1" stroke-width="1"/>
  <path d="M0 450H600" stroke="#F0B90B" stroke-opacity="0.1" stroke-width="1"/>
  <path d="M0 500H600" stroke="#F0B90B" stroke-opacity="0.1" stroke-width="1"/>
  <path d="M0 550H600" stroke="#F0B90B" stroke-opacity="0.1" stroke-width="1"/>
  
  <path d="M50 0V600" stroke="#F0B90B" stroke-opacity="0.1" stroke-width="1"/>
  <path d="M100 0V600" stroke="#F0B90B" stroke-opacity="0.1" stroke-width="1"/>
  <path d="M150 0V600" stroke="#F0B90B" stroke-opacity="0.1" stroke-width="1"/>
  <path d="M200 0V600" stroke="#F0B90B" stroke-opacity="0.1" stroke-width="1"/>
  <path d="M250 0V600" stroke="#F0B90B" stroke-opacity="0.1" stroke-width="1"/>
  <path d="M300 0V600" stroke="#F0B90B" stroke-opacity="0.1" stroke-width="1"/>
  <path d="M350 0V600" stroke="#F0B90B" stroke-opacity="0.1" stroke-width="1"/>
  <path d="M400 0V600" stroke="#F0B90B" stroke-opacity="0.1" stroke-width="1"/>
  <path d="M450 0V600" stroke="#F0B90B" stroke-opacity="0.1" stroke-width="1"/>
  <path d="M500 0V600" stroke="#F0B90B" stroke-opacity="0.1" stroke-width="1"/>
  <path d="M550 0V600" stroke="#F0B90B" stroke-opacity="0.1" stroke-width="1"/>
  
  <!-- Pie Chart -->
  <circle cx="300" cy="250" r="150" fill="#000000" stroke="#F0B90B" stroke-width="3"/>
  
  <!-- Pie Chart Segments -->
  <!-- IDO (40%) -->
  <path d="M300 250 L300 100 A150 150 0 0 1 429.9 175 Z" fill="#F0B90B" fill-opacity="0.9"/>
  
  <!-- Liquidity (20%) -->
  <path d="M300 250 L429.9 175 A150 150 0 0 1 429.9 325 Z" fill="#F0B90B" fill-opacity="0.7"/>
  
  <!-- Team (15%) -->
  <path d="M300 250 L429.9 325 A150 150 0 0 1 364.95 389.95 Z" fill="#F0B90B" fill-opacity="0.5"/>
  
  <!-- Marketing (15%) -->
  <path d="M300 250 L364.95 389.95 A150 150 0 0 1 235.05 389.95 Z" fill="#F0B90B" fill-opacity="0.4"/>
  
  <!-- Ecosystem (10%) -->
  <path d="M300 250 L235.05 389.95 A150 150 0 0 1 170.1 325 Z" fill="#F0B90B" fill-opacity="0.3"/>
  
  <!-- Reserve (5%) -->
  <path d="M300 250 L170.1 325 A150 150 0 0 1 170.1 175 Z" fill="#F0B90B" fill-opacity="0.2"/>
  
  <!-- Airdrop (5%) -->
  <path d="M300 250 L170.1 175 A150 150 0 0 1 300 100 Z" fill="#F0B90B" fill-opacity="0.1"/>
  
  <!-- Legend -->
  <rect x="100" y="450" width="20" height="20" fill="#F0B90B" fill-opacity="0.9"/>
  <text x="130" y="465" font-family="Arial" font-size="14" fill="#F0B90B">IDO (40%)</text>
  
  <rect x="100" y="480" width="20" height="20" fill="#F0B90B" fill-opacity="0.7"/>
  <text x="130" y="495" font-family="Arial" font-size="14" fill="#F0B90B">Liquidity (20%)</text>
  
  <rect x="100" y="510" width="20" height="20" fill="#F0B90B" fill-opacity="0.5"/>
  <text x="130" y="525" font-family="Arial" font-size="14" fill="#F0B90B">Team (15%)</text>
  
  <rect x="350" y="450" width="20" height="20" fill="#F0B90B" fill-opacity="0.4"/>
  <text x="380" y="465" font-family="Arial" font-size="14" fill="#F0B90B">Marketing (15%)</text>
  
  <rect x="350" y="480" width="20" height="20" fill="#F0B90B" fill-opacity="0.3"/>
  <text x="380" y="495" font-family="Arial" font-size="14" fill="#F0B90B">Ecosystem (10%)</text>
  
  <rect x="350" y="510" width="20" height="20" fill="#F0B90B" fill-opacity="0.2"/>
  <text x="380" y="525" font-family="Arial" font-size="14" fill="#F0B90B">Reserve (5%)</text>
  
  <rect x="350" y="540" width="20" height="20" fill="#F0B90B" fill-opacity="0.1"/>
  <text x="380" y="555" font-family="Arial" font-size="14" fill="#F0B90B">Airdrop (5%)</text>
  
  <!-- Title -->
  <text x="300" y="50" font-family="Arial" font-size="24" font-weight="bold" fill="#F0B90B" text-anchor="middle">MEMEFI TOKENOMICS</text>
  
  <!-- Total Supply -->
  <text x="300" y="80" font-family="Arial" font-size="16" fill="#F0B90B" text-anchor="middle">Total Supply: 1,000,000,000 MEMEFI</text>
  
  <!-- Center Token Symbol -->
  <circle cx="300" cy="250" r="50" fill="#000000" stroke="#F0B90B" stroke-width="2"/>
  <text x="300" y="260" font-family="Arial" font-size="20" fill="#F0B90B" text-anchor="middle">MEMEFI</text>
  
  <!-- Glow Effect -->
  <circle cx="300" cy="250" r="170" fill="url(#glow)"/>
  
  <defs>
    <radialGradient id="glow" cx="0" cy="0" r="1" gradientUnits="userSpaceOnUse" gradientTransform="translate(300 250) rotate(90) scale(170)">
      <stop stop-color="#F0B90B" stop-opacity="0.2"/>
      <stop offset="1" stop-color="#F0B90B" stop-opacity="0"/>
    </radialGradient>
  </defs>
</svg> 